<mxfile host="app.diagrams.net" agent="Mozilla/5.0 (X11; Linux x86_64; rv:136.0) Gecko/20100101 Firefox/136.0" version="26.2.14">
  <diagram id="C5RBs43oDa-KdzZeNtuy" name="Page-1">
    <mxGraphModel dx="2015" dy="688" grid="1" gridSize="10" guides="1" tooltips="1" connect="1" arrows="1" fold="1" page="1" pageScale="1" pageWidth="827" pageHeight="1169" math="0" shadow="0">
      <root>
        <mxCell id="WIyWlLk6GJQsqaUBKTNV-0" />
        <mxCell id="WIyWlLk6GJQsqaUBKTNV-1" parent="WIyWlLk6GJQsqaUBKTNV-0" />
        <mxCell id="WIyWlLk6GJQsqaUBKTNV-2" value="" style="rounded=0;html=1;jettySize=auto;orthogonalLoop=1;fontSize=11;endArrow=block;endFill=0;endSize=8;strokeWidth=1;shadow=0;labelBackgroundColor=none;edgeStyle=orthogonalEdgeStyle;" parent="WIyWlLk6GJQsqaUBKTNV-1" source="WIyWlLk6GJQsqaUBKTNV-3" target="WIyWlLk6GJQsqaUBKTNV-6" edge="1">
          <mxGeometry relative="1" as="geometry" />
        </mxCell>
        <mxCell id="WIyWlLk6GJQsqaUBKTNV-3" value="Lamp doesn&#39;t work" style="rounded=1;whiteSpace=wrap;html=1;fontSize=12;glass=0;strokeWidth=1;shadow=0;" parent="WIyWlLk6GJQsqaUBKTNV-1" vertex="1">
          <mxGeometry x="-140" y="90" width="120" height="40" as="geometry" />
        </mxCell>
        <mxCell id="WIyWlLk6GJQsqaUBKTNV-4" value="Yes" style="rounded=0;html=1;jettySize=auto;orthogonalLoop=1;fontSize=11;endArrow=block;endFill=0;endSize=8;strokeWidth=1;shadow=0;labelBackgroundColor=none;edgeStyle=orthogonalEdgeStyle;" parent="WIyWlLk6GJQsqaUBKTNV-1" source="WIyWlLk6GJQsqaUBKTNV-6" target="WIyWlLk6GJQsqaUBKTNV-10" edge="1">
          <mxGeometry y="20" relative="1" as="geometry">
            <mxPoint as="offset" />
          </mxGeometry>
        </mxCell>
        <mxCell id="WIyWlLk6GJQsqaUBKTNV-5" value="No" style="edgeStyle=orthogonalEdgeStyle;rounded=0;html=1;jettySize=auto;orthogonalLoop=1;fontSize=11;endArrow=block;endFill=0;endSize=8;strokeWidth=1;shadow=0;labelBackgroundColor=none;" parent="WIyWlLk6GJQsqaUBKTNV-1" source="WIyWlLk6GJQsqaUBKTNV-6" target="WIyWlLk6GJQsqaUBKTNV-7" edge="1">
          <mxGeometry y="10" relative="1" as="geometry">
            <mxPoint as="offset" />
          </mxGeometry>
        </mxCell>
        <mxCell id="WIyWlLk6GJQsqaUBKTNV-6" value="Lamp&lt;br&gt;plugged in?" style="rhombus;whiteSpace=wrap;html=1;shadow=0;fontFamily=Helvetica;fontSize=12;align=center;strokeWidth=1;spacing=6;spacingTop=-4;" parent="WIyWlLk6GJQsqaUBKTNV-1" vertex="1">
          <mxGeometry x="-130" y="180" width="100" height="80" as="geometry" />
        </mxCell>
        <mxCell id="WIyWlLk6GJQsqaUBKTNV-7" value="Plug in lamp" style="rounded=1;whiteSpace=wrap;html=1;fontSize=12;glass=0;strokeWidth=1;shadow=0;" parent="WIyWlLk6GJQsqaUBKTNV-1" vertex="1">
          <mxGeometry x="20" y="200" width="120" height="40" as="geometry" />
        </mxCell>
        <mxCell id="WIyWlLk6GJQsqaUBKTNV-8" value="No" style="rounded=0;html=1;jettySize=auto;orthogonalLoop=1;fontSize=11;endArrow=block;endFill=0;endSize=8;strokeWidth=1;shadow=0;labelBackgroundColor=none;edgeStyle=orthogonalEdgeStyle;" parent="WIyWlLk6GJQsqaUBKTNV-1" source="WIyWlLk6GJQsqaUBKTNV-10" target="WIyWlLk6GJQsqaUBKTNV-11" edge="1">
          <mxGeometry x="0.3333" y="20" relative="1" as="geometry">
            <mxPoint as="offset" />
          </mxGeometry>
        </mxCell>
        <mxCell id="WIyWlLk6GJQsqaUBKTNV-9" value="Yes" style="edgeStyle=orthogonalEdgeStyle;rounded=0;html=1;jettySize=auto;orthogonalLoop=1;fontSize=11;endArrow=block;endFill=0;endSize=8;strokeWidth=1;shadow=0;labelBackgroundColor=none;" parent="WIyWlLk6GJQsqaUBKTNV-1" source="WIyWlLk6GJQsqaUBKTNV-10" target="WIyWlLk6GJQsqaUBKTNV-12" edge="1">
          <mxGeometry y="10" relative="1" as="geometry">
            <mxPoint as="offset" />
          </mxGeometry>
        </mxCell>
        <mxCell id="WIyWlLk6GJQsqaUBKTNV-10" value="Bulb&lt;br&gt;burned out?" style="rhombus;whiteSpace=wrap;html=1;shadow=0;fontFamily=Helvetica;fontSize=12;align=center;strokeWidth=1;spacing=6;spacingTop=-4;" parent="WIyWlLk6GJQsqaUBKTNV-1" vertex="1">
          <mxGeometry x="-130" y="300" width="100" height="80" as="geometry" />
        </mxCell>
        <mxCell id="WIyWlLk6GJQsqaUBKTNV-11" value="Repair Lamp" style="rounded=1;whiteSpace=wrap;html=1;fontSize=12;glass=0;strokeWidth=1;shadow=0;" parent="WIyWlLk6GJQsqaUBKTNV-1" vertex="1">
          <mxGeometry x="-140" y="440" width="120" height="40" as="geometry" />
        </mxCell>
        <mxCell id="WIyWlLk6GJQsqaUBKTNV-12" value="Replace Bulb" style="rounded=1;whiteSpace=wrap;html=1;fontSize=12;glass=0;strokeWidth=1;shadow=0;" parent="WIyWlLk6GJQsqaUBKTNV-1" vertex="1">
          <mxGeometry x="20" y="320" width="120" height="40" as="geometry" />
        </mxCell>
        <mxCell id="0vRiRqgq7QBy-XEFv2EO-0" value="&lt;div&gt;Запуск программы&lt;/div&gt;" style="rounded=1;whiteSpace=wrap;html=1;fontSize=12;glass=0;strokeWidth=1;shadow=0;" vertex="1" parent="WIyWlLk6GJQsqaUBKTNV-1">
          <mxGeometry x="550" y="130" width="120" height="40" as="geometry" />
        </mxCell>
        <mxCell id="0vRiRqgq7QBy-XEFv2EO-4" value="" style="edgeStyle=orthogonalEdgeStyle;rounded=0;orthogonalLoop=1;jettySize=auto;html=1;" edge="1" parent="WIyWlLk6GJQsqaUBKTNV-1" target="0vRiRqgq7QBy-XEFv2EO-0">
          <mxGeometry relative="1" as="geometry">
            <mxPoint x="610" y="100" as="sourcePoint" />
          </mxGeometry>
        </mxCell>
        <mxCell id="0vRiRqgq7QBy-XEFv2EO-9" value="" style="edgeStyle=orthogonalEdgeStyle;rounded=0;orthogonalLoop=1;jettySize=auto;html=1;" edge="1" parent="WIyWlLk6GJQsqaUBKTNV-1">
          <mxGeometry relative="1" as="geometry">
            <mxPoint x="610" y="170" as="sourcePoint" />
            <mxPoint x="610" y="190" as="targetPoint" />
          </mxGeometry>
        </mxCell>
        <mxCell id="0vRiRqgq7QBy-XEFv2EO-29" style="edgeStyle=orthogonalEdgeStyle;rounded=0;orthogonalLoop=1;jettySize=auto;html=1;exitX=0;exitY=0.5;exitDx=0;exitDy=0;entryX=0.5;entryY=0;entryDx=0;entryDy=0;" edge="1" parent="WIyWlLk6GJQsqaUBKTNV-1" source="0vRiRqgq7QBy-XEFv2EO-23" target="0vRiRqgq7QBy-XEFv2EO-24">
          <mxGeometry relative="1" as="geometry" />
        </mxCell>
        <mxCell id="0vRiRqgq7QBy-XEFv2EO-86" style="edgeStyle=orthogonalEdgeStyle;rounded=0;orthogonalLoop=1;jettySize=auto;html=1;exitX=1;exitY=0.5;exitDx=0;exitDy=0;entryX=0.5;entryY=0;entryDx=0;entryDy=0;" edge="1" parent="WIyWlLk6GJQsqaUBKTNV-1" source="0vRiRqgq7QBy-XEFv2EO-23" target="0vRiRqgq7QBy-XEFv2EO-65">
          <mxGeometry relative="1" as="geometry" />
        </mxCell>
        <mxCell id="0vRiRqgq7QBy-XEFv2EO-23" value="&lt;div&gt;Выбор между&amp;nbsp;&lt;/div&gt;&lt;div&gt;клиентом и&amp;nbsp;&lt;/div&gt;&lt;div&gt;серевром&lt;/div&gt;" style="shape=hexagon;perimeter=hexagonPerimeter2;whiteSpace=wrap;html=1;fixedSize=1;" vertex="1" parent="WIyWlLk6GJQsqaUBKTNV-1">
          <mxGeometry x="540" y="190" width="140" height="40" as="geometry" />
        </mxCell>
        <mxCell id="0vRiRqgq7QBy-XEFv2EO-31" style="edgeStyle=orthogonalEdgeStyle;rounded=0;orthogonalLoop=1;jettySize=auto;html=1;exitX=0.5;exitY=1;exitDx=0;exitDy=0;entryX=0.5;entryY=0;entryDx=0;entryDy=0;" edge="1" parent="WIyWlLk6GJQsqaUBKTNV-1" source="0vRiRqgq7QBy-XEFv2EO-24" target="0vRiRqgq7QBy-XEFv2EO-25">
          <mxGeometry relative="1" as="geometry" />
        </mxCell>
        <mxCell id="0vRiRqgq7QBy-XEFv2EO-58" style="edgeStyle=orthogonalEdgeStyle;rounded=0;orthogonalLoop=1;jettySize=auto;html=1;exitX=0;exitY=0.5;exitDx=0;exitDy=0;" edge="1" parent="WIyWlLk6GJQsqaUBKTNV-1" source="0vRiRqgq7QBy-XEFv2EO-24">
          <mxGeometry relative="1" as="geometry">
            <mxPoint x="240" y="420" as="targetPoint" />
            <Array as="points">
              <mxPoint x="240" y="280" />
              <mxPoint x="240" y="420" />
            </Array>
          </mxGeometry>
        </mxCell>
        <mxCell id="0vRiRqgq7QBy-XEFv2EO-24" value="&lt;div&gt;Запуск клиента&lt;/div&gt;" style="shape=hexagon;perimeter=hexagonPerimeter2;whiteSpace=wrap;html=1;fixedSize=1;" vertex="1" parent="WIyWlLk6GJQsqaUBKTNV-1">
          <mxGeometry x="400" y="260" width="140" height="40" as="geometry" />
        </mxCell>
        <mxCell id="0vRiRqgq7QBy-XEFv2EO-33" style="edgeStyle=orthogonalEdgeStyle;rounded=0;orthogonalLoop=1;jettySize=auto;html=1;exitX=0.5;exitY=1;exitDx=0;exitDy=0;entryX=0.5;entryY=0;entryDx=0;entryDy=0;" edge="1" parent="WIyWlLk6GJQsqaUBKTNV-1" source="0vRiRqgq7QBy-XEFv2EO-25" target="0vRiRqgq7QBy-XEFv2EO-26">
          <mxGeometry relative="1" as="geometry" />
        </mxCell>
        <mxCell id="0vRiRqgq7QBy-XEFv2EO-60" style="edgeStyle=orthogonalEdgeStyle;rounded=0;orthogonalLoop=1;jettySize=auto;html=1;exitX=0;exitY=0.5;exitDx=0;exitDy=0;entryX=1;entryY=0.5;entryDx=0;entryDy=0;" edge="1" parent="WIyWlLk6GJQsqaUBKTNV-1" source="0vRiRqgq7QBy-XEFv2EO-25" target="0vRiRqgq7QBy-XEFv2EO-59">
          <mxGeometry relative="1" as="geometry" />
        </mxCell>
        <mxCell id="0vRiRqgq7QBy-XEFv2EO-25" value="&lt;div&gt;Подключение к&lt;br&gt; серверу&lt;/div&gt;" style="shape=hexagon;perimeter=hexagonPerimeter2;whiteSpace=wrap;html=1;fixedSize=1;" vertex="1" parent="WIyWlLk6GJQsqaUBKTNV-1">
          <mxGeometry x="400" y="330" width="140" height="40" as="geometry" />
        </mxCell>
        <mxCell id="0vRiRqgq7QBy-XEFv2EO-35" style="edgeStyle=orthogonalEdgeStyle;rounded=0;orthogonalLoop=1;jettySize=auto;html=1;exitX=0.5;exitY=1;exitDx=0;exitDy=0;entryX=0.5;entryY=0;entryDx=0;entryDy=0;" edge="1" parent="WIyWlLk6GJQsqaUBKTNV-1" source="0vRiRqgq7QBy-XEFv2EO-26" target="0vRiRqgq7QBy-XEFv2EO-27">
          <mxGeometry relative="1" as="geometry" />
        </mxCell>
        <mxCell id="0vRiRqgq7QBy-XEFv2EO-57" style="edgeStyle=orthogonalEdgeStyle;rounded=0;orthogonalLoop=1;jettySize=auto;html=1;exitX=0;exitY=0.5;exitDx=0;exitDy=0;entryX=0.5;entryY=0;entryDx=0;entryDy=0;" edge="1" parent="WIyWlLk6GJQsqaUBKTNV-1" source="0vRiRqgq7QBy-XEFv2EO-26" target="0vRiRqgq7QBy-XEFv2EO-52">
          <mxGeometry relative="1" as="geometry">
            <Array as="points">
              <mxPoint x="240" y="420" />
              <mxPoint x="240" y="660" />
            </Array>
          </mxGeometry>
        </mxCell>
        <mxCell id="0vRiRqgq7QBy-XEFv2EO-26" value="Выбор команды" style="shape=hexagon;perimeter=hexagonPerimeter2;whiteSpace=wrap;html=1;fixedSize=1;" vertex="1" parent="WIyWlLk6GJQsqaUBKTNV-1">
          <mxGeometry x="400" y="400" width="140" height="40" as="geometry" />
        </mxCell>
        <mxCell id="0vRiRqgq7QBy-XEFv2EO-38" style="edgeStyle=orthogonalEdgeStyle;rounded=0;orthogonalLoop=1;jettySize=auto;html=1;exitX=0.5;exitY=1;exitDx=0;exitDy=0;entryX=0.5;entryY=0;entryDx=0;entryDy=0;" edge="1" parent="WIyWlLk6GJQsqaUBKTNV-1" source="0vRiRqgq7QBy-XEFv2EO-27" target="0vRiRqgq7QBy-XEFv2EO-28">
          <mxGeometry relative="1" as="geometry" />
        </mxCell>
        <mxCell id="0vRiRqgq7QBy-XEFv2EO-50" style="edgeStyle=orthogonalEdgeStyle;rounded=0;orthogonalLoop=1;jettySize=auto;html=1;exitX=1;exitY=0.5;exitDx=0;exitDy=0;" edge="1" parent="WIyWlLk6GJQsqaUBKTNV-1" source="0vRiRqgq7QBy-XEFv2EO-27">
          <mxGeometry relative="1" as="geometry">
            <mxPoint x="590" y="490.3333333333335" as="targetPoint" />
          </mxGeometry>
        </mxCell>
        <mxCell id="0vRiRqgq7QBy-XEFv2EO-27" value="Отправление &lt;br&gt;команды серверу" style="shape=hexagon;perimeter=hexagonPerimeter2;whiteSpace=wrap;html=1;fixedSize=1;" vertex="1" parent="WIyWlLk6GJQsqaUBKTNV-1">
          <mxGeometry x="400" y="470" width="140" height="40" as="geometry" />
        </mxCell>
        <mxCell id="0vRiRqgq7QBy-XEFv2EO-41" style="edgeStyle=orthogonalEdgeStyle;rounded=0;orthogonalLoop=1;jettySize=auto;html=1;exitX=0.5;exitY=1;exitDx=0;exitDy=0;" edge="1" parent="WIyWlLk6GJQsqaUBKTNV-1" source="0vRiRqgq7QBy-XEFv2EO-28">
          <mxGeometry relative="1" as="geometry">
            <mxPoint x="470" y="610" as="targetPoint" />
          </mxGeometry>
        </mxCell>
        <mxCell id="0vRiRqgq7QBy-XEFv2EO-47" style="edgeStyle=orthogonalEdgeStyle;rounded=0;orthogonalLoop=1;jettySize=auto;html=1;exitX=1;exitY=0.5;exitDx=0;exitDy=0;entryX=1;entryY=0.5;entryDx=0;entryDy=0;" edge="1" parent="WIyWlLk6GJQsqaUBKTNV-1" source="0vRiRqgq7QBy-XEFv2EO-28" target="0vRiRqgq7QBy-XEFv2EO-25">
          <mxGeometry relative="1" as="geometry">
            <mxPoint x="610" y="380" as="targetPoint" />
            <Array as="points">
              <mxPoint x="590" y="560" />
              <mxPoint x="590" y="350" />
            </Array>
          </mxGeometry>
        </mxCell>
        <mxCell id="0vRiRqgq7QBy-XEFv2EO-28" value="Получение ответа от сервера" style="shape=hexagon;perimeter=hexagonPerimeter2;whiteSpace=wrap;html=1;fixedSize=1;" vertex="1" parent="WIyWlLk6GJQsqaUBKTNV-1">
          <mxGeometry x="400" y="540" width="140" height="40" as="geometry" />
        </mxCell>
        <mxCell id="0vRiRqgq7QBy-XEFv2EO-30" value="&lt;div&gt;клиент&lt;/div&gt;" style="text;html=1;align=center;verticalAlign=middle;resizable=0;points=[];autosize=1;strokeColor=none;fillColor=none;" vertex="1" parent="WIyWlLk6GJQsqaUBKTNV-1">
          <mxGeometry x="490" y="188" width="60" height="30" as="geometry" />
        </mxCell>
        <mxCell id="0vRiRqgq7QBy-XEFv2EO-32" value="&lt;div&gt;успешно&lt;/div&gt;" style="text;html=1;align=center;verticalAlign=middle;resizable=0;points=[];autosize=1;strokeColor=none;fillColor=none;" vertex="1" parent="WIyWlLk6GJQsqaUBKTNV-1">
          <mxGeometry x="460" y="290" width="70" height="30" as="geometry" />
        </mxCell>
        <mxCell id="0vRiRqgq7QBy-XEFv2EO-34" value="&lt;div&gt;успешно&lt;/div&gt;" style="text;html=1;align=center;verticalAlign=middle;resizable=0;points=[];autosize=1;strokeColor=none;fillColor=none;" vertex="1" parent="WIyWlLk6GJQsqaUBKTNV-1">
          <mxGeometry x="460" y="360" width="70" height="30" as="geometry" />
        </mxCell>
        <mxCell id="0vRiRqgq7QBy-XEFv2EO-37" value="&lt;div&gt;успешно&lt;/div&gt;" style="text;html=1;align=center;verticalAlign=middle;resizable=0;points=[];autosize=1;strokeColor=none;fillColor=none;" vertex="1" parent="WIyWlLk6GJQsqaUBKTNV-1">
          <mxGeometry x="460" y="500" width="70" height="30" as="geometry" />
        </mxCell>
        <mxCell id="0vRiRqgq7QBy-XEFv2EO-68" style="edgeStyle=orthogonalEdgeStyle;rounded=0;orthogonalLoop=1;jettySize=auto;html=1;exitX=0.5;exitY=1;exitDx=0;exitDy=0;entryX=1;entryY=0.5;entryDx=0;entryDy=0;" edge="1" parent="WIyWlLk6GJQsqaUBKTNV-1" source="0vRiRqgq7QBy-XEFv2EO-43" target="0vRiRqgq7QBy-XEFv2EO-26">
          <mxGeometry relative="1" as="geometry">
            <Array as="points">
              <mxPoint x="470" y="660" />
              <mxPoint x="600" y="660" />
              <mxPoint x="600" y="420" />
            </Array>
          </mxGeometry>
        </mxCell>
        <mxCell id="0vRiRqgq7QBy-XEFv2EO-43" value="Вывод результата&lt;br&gt; команды" style="whiteSpace=wrap;html=1;rounded=1;glass=0;strokeWidth=1;shadow=0;" vertex="1" parent="WIyWlLk6GJQsqaUBKTNV-1">
          <mxGeometry x="400" y="610" width="140" height="40" as="geometry" />
        </mxCell>
        <mxCell id="0vRiRqgq7QBy-XEFv2EO-45" value="&lt;div&gt;успешно&lt;/div&gt;" style="text;html=1;align=center;verticalAlign=middle;resizable=0;points=[];autosize=1;strokeColor=none;fillColor=none;" vertex="1" parent="WIyWlLk6GJQsqaUBKTNV-1">
          <mxGeometry x="460" y="570" width="70" height="30" as="geometry" />
        </mxCell>
        <mxCell id="0vRiRqgq7QBy-XEFv2EO-48" value="&lt;div&gt;ошибка&lt;/div&gt;" style="text;html=1;align=center;verticalAlign=middle;resizable=0;points=[];autosize=1;strokeColor=none;fillColor=none;" vertex="1" parent="WIyWlLk6GJQsqaUBKTNV-1">
          <mxGeometry x="530" y="538" width="70" height="30" as="geometry" />
        </mxCell>
        <mxCell id="0vRiRqgq7QBy-XEFv2EO-51" value="&lt;div&gt;ошибка&lt;/div&gt;" style="text;html=1;align=center;verticalAlign=middle;resizable=0;points=[];autosize=1;strokeColor=none;fillColor=none;" vertex="1" parent="WIyWlLk6GJQsqaUBKTNV-1">
          <mxGeometry x="530" y="480" width="70" height="30" as="geometry" />
        </mxCell>
        <mxCell id="0vRiRqgq7QBy-XEFv2EO-113" style="edgeStyle=orthogonalEdgeStyle;rounded=0;orthogonalLoop=1;jettySize=auto;html=1;exitX=0.5;exitY=1;exitDx=0;exitDy=0;entryX=0.5;entryY=0;entryDx=0;entryDy=0;" edge="1" parent="WIyWlLk6GJQsqaUBKTNV-1" source="0vRiRqgq7QBy-XEFv2EO-52" target="0vRiRqgq7QBy-XEFv2EO-112">
          <mxGeometry relative="1" as="geometry" />
        </mxCell>
        <mxCell id="0vRiRqgq7QBy-XEFv2EO-52" value="&lt;div&gt;Завершение работы клиента&lt;/div&gt;" style="whiteSpace=wrap;html=1;rounded=1;glass=0;strokeWidth=1;shadow=0;" vertex="1" parent="WIyWlLk6GJQsqaUBKTNV-1">
          <mxGeometry x="170" y="670" width="140" height="40" as="geometry" />
        </mxCell>
        <mxCell id="0vRiRqgq7QBy-XEFv2EO-55" value="&lt;div&gt;Выбран &quot;выход&quot;&lt;/div&gt;" style="text;html=1;align=center;verticalAlign=middle;resizable=0;points=[];autosize=1;strokeColor=none;fillColor=none;" vertex="1" parent="WIyWlLk6GJQsqaUBKTNV-1">
          <mxGeometry x="300" y="410" width="110" height="30" as="geometry" />
        </mxCell>
        <mxCell id="0vRiRqgq7QBy-XEFv2EO-63" style="edgeStyle=orthogonalEdgeStyle;rounded=0;orthogonalLoop=1;jettySize=auto;html=1;exitX=0.5;exitY=0;exitDx=0;exitDy=0;" edge="1" parent="WIyWlLk6GJQsqaUBKTNV-1" source="0vRiRqgq7QBy-XEFv2EO-59">
          <mxGeometry relative="1" as="geometry">
            <mxPoint x="470" y="310" as="targetPoint" />
            <Array as="points">
              <mxPoint x="300" y="310" />
            </Array>
          </mxGeometry>
        </mxCell>
        <mxCell id="0vRiRqgq7QBy-XEFv2EO-59" value="&lt;div&gt;Ожидание 5 секунд&lt;/div&gt;" style="whiteSpace=wrap;html=1;rounded=1;glass=0;strokeWidth=1;shadow=0;" vertex="1" parent="WIyWlLk6GJQsqaUBKTNV-1">
          <mxGeometry x="250" y="330" width="100" height="40" as="geometry" />
        </mxCell>
        <mxCell id="0vRiRqgq7QBy-XEFv2EO-61" value="&lt;div&gt;ошибка&lt;/div&gt;" style="text;html=1;align=center;verticalAlign=middle;resizable=0;points=[];autosize=1;strokeColor=none;fillColor=none;" vertex="1" parent="WIyWlLk6GJQsqaUBKTNV-1">
          <mxGeometry x="340" y="340" width="70" height="30" as="geometry" />
        </mxCell>
        <mxCell id="0vRiRqgq7QBy-XEFv2EO-64" value="&lt;div&gt;ошибка&lt;/div&gt;" style="text;html=1;align=center;verticalAlign=middle;resizable=0;points=[];autosize=1;strokeColor=none;fillColor=none;" vertex="1" parent="WIyWlLk6GJQsqaUBKTNV-1">
          <mxGeometry x="340" y="270" width="70" height="30" as="geometry" />
        </mxCell>
        <mxCell id="0vRiRqgq7QBy-XEFv2EO-73" style="edgeStyle=orthogonalEdgeStyle;rounded=0;orthogonalLoop=1;jettySize=auto;html=1;exitX=0.5;exitY=1;exitDx=0;exitDy=0;entryX=0.5;entryY=0;entryDx=0;entryDy=0;" edge="1" parent="WIyWlLk6GJQsqaUBKTNV-1" source="0vRiRqgq7QBy-XEFv2EO-65" target="0vRiRqgq7QBy-XEFv2EO-70">
          <mxGeometry relative="1" as="geometry" />
        </mxCell>
        <mxCell id="0vRiRqgq7QBy-XEFv2EO-107" style="edgeStyle=orthogonalEdgeStyle;rounded=0;orthogonalLoop=1;jettySize=auto;html=1;exitX=1;exitY=0.5;exitDx=0;exitDy=0;entryX=0.5;entryY=0;entryDx=0;entryDy=0;" edge="1" parent="WIyWlLk6GJQsqaUBKTNV-1" source="0vRiRqgq7QBy-XEFv2EO-65" target="0vRiRqgq7QBy-XEFv2EO-108">
          <mxGeometry relative="1" as="geometry">
            <mxPoint x="1010" y="660" as="targetPoint" />
            <Array as="points">
              <mxPoint x="980" y="280" />
              <mxPoint x="980" y="660" />
            </Array>
          </mxGeometry>
        </mxCell>
        <mxCell id="0vRiRqgq7QBy-XEFv2EO-65" value="Запуск сервера" style="shape=hexagon;perimeter=hexagonPerimeter2;whiteSpace=wrap;html=1;fixedSize=1;" vertex="1" parent="WIyWlLk6GJQsqaUBKTNV-1">
          <mxGeometry x="670" y="260" width="140" height="40" as="geometry" />
        </mxCell>
        <mxCell id="0vRiRqgq7QBy-XEFv2EO-75" style="edgeStyle=orthogonalEdgeStyle;rounded=0;orthogonalLoop=1;jettySize=auto;html=1;exitX=0.5;exitY=1;exitDx=0;exitDy=0;entryX=0.5;entryY=0;entryDx=0;entryDy=0;" edge="1" parent="WIyWlLk6GJQsqaUBKTNV-1" source="0vRiRqgq7QBy-XEFv2EO-66" target="0vRiRqgq7QBy-XEFv2EO-69">
          <mxGeometry relative="1" as="geometry" />
        </mxCell>
        <mxCell id="0vRiRqgq7QBy-XEFv2EO-88" style="edgeStyle=orthogonalEdgeStyle;rounded=0;orthogonalLoop=1;jettySize=auto;html=1;exitX=0;exitY=0.5;exitDx=0;exitDy=0;entryX=0;entryY=0.5;entryDx=0;entryDy=0;" edge="1" parent="WIyWlLk6GJQsqaUBKTNV-1" source="0vRiRqgq7QBy-XEFv2EO-66" target="0vRiRqgq7QBy-XEFv2EO-70">
          <mxGeometry relative="1" as="geometry">
            <Array as="points">
              <mxPoint x="620" y="420" />
              <mxPoint x="620" y="350" />
            </Array>
          </mxGeometry>
        </mxCell>
        <mxCell id="0vRiRqgq7QBy-XEFv2EO-66" value="&lt;div&gt;Подключение к &lt;br&gt;клиенту&lt;/div&gt;" style="shape=hexagon;perimeter=hexagonPerimeter2;whiteSpace=wrap;html=1;fixedSize=1;" vertex="1" parent="WIyWlLk6GJQsqaUBKTNV-1">
          <mxGeometry x="670" y="400" width="140" height="40" as="geometry" />
        </mxCell>
        <mxCell id="0vRiRqgq7QBy-XEFv2EO-76" style="edgeStyle=orthogonalEdgeStyle;rounded=0;orthogonalLoop=1;jettySize=auto;html=1;exitX=0.5;exitY=1;exitDx=0;exitDy=0;entryX=0.5;entryY=0;entryDx=0;entryDy=0;" edge="1" parent="WIyWlLk6GJQsqaUBKTNV-1" source="0vRiRqgq7QBy-XEFv2EO-69" target="0vRiRqgq7QBy-XEFv2EO-71">
          <mxGeometry relative="1" as="geometry" />
        </mxCell>
        <mxCell id="0vRiRqgq7QBy-XEFv2EO-95" style="edgeStyle=orthogonalEdgeStyle;rounded=0;orthogonalLoop=1;jettySize=auto;html=1;exitX=0;exitY=0.5;exitDx=0;exitDy=0;" edge="1" parent="WIyWlLk6GJQsqaUBKTNV-1" source="0vRiRqgq7QBy-XEFv2EO-69">
          <mxGeometry relative="1" as="geometry">
            <mxPoint x="620" y="420" as="targetPoint" />
          </mxGeometry>
        </mxCell>
        <mxCell id="0vRiRqgq7QBy-XEFv2EO-69" value="&lt;div&gt;Ожидание команды&amp;nbsp;&lt;/div&gt;&lt;div&gt;от клиента&lt;/div&gt;" style="shape=hexagon;perimeter=hexagonPerimeter2;whiteSpace=wrap;html=1;fixedSize=1;" vertex="1" parent="WIyWlLk6GJQsqaUBKTNV-1">
          <mxGeometry x="670" y="470" width="140" height="40" as="geometry" />
        </mxCell>
        <mxCell id="0vRiRqgq7QBy-XEFv2EO-74" style="edgeStyle=orthogonalEdgeStyle;rounded=0;orthogonalLoop=1;jettySize=auto;html=1;exitX=0.5;exitY=1;exitDx=0;exitDy=0;entryX=0.5;entryY=0;entryDx=0;entryDy=0;" edge="1" parent="WIyWlLk6GJQsqaUBKTNV-1" source="0vRiRqgq7QBy-XEFv2EO-70" target="0vRiRqgq7QBy-XEFv2EO-66">
          <mxGeometry relative="1" as="geometry" />
        </mxCell>
        <mxCell id="0vRiRqgq7QBy-XEFv2EO-70" value="Ожидание подключения клиента" style="whiteSpace=wrap;html=1;rounded=1;glass=0;strokeWidth=1;shadow=0;" vertex="1" parent="WIyWlLk6GJQsqaUBKTNV-1">
          <mxGeometry x="670" y="330" width="140" height="40" as="geometry" />
        </mxCell>
        <mxCell id="0vRiRqgq7QBy-XEFv2EO-77" style="edgeStyle=orthogonalEdgeStyle;rounded=0;orthogonalLoop=1;jettySize=auto;html=1;exitX=0.5;exitY=1;exitDx=0;exitDy=0;entryX=0.5;entryY=0;entryDx=0;entryDy=0;" edge="1" parent="WIyWlLk6GJQsqaUBKTNV-1" source="0vRiRqgq7QBy-XEFv2EO-71" target="0vRiRqgq7QBy-XEFv2EO-72">
          <mxGeometry relative="1" as="geometry" />
        </mxCell>
        <mxCell id="0vRiRqgq7QBy-XEFv2EO-104" style="edgeStyle=orthogonalEdgeStyle;rounded=0;orthogonalLoop=1;jettySize=auto;html=1;exitX=1;exitY=0.5;exitDx=0;exitDy=0;entryX=0.5;entryY=0;entryDx=0;entryDy=0;" edge="1" parent="WIyWlLk6GJQsqaUBKTNV-1" source="0vRiRqgq7QBy-XEFv2EO-71" target="0vRiRqgq7QBy-XEFv2EO-102">
          <mxGeometry relative="1" as="geometry">
            <Array as="points">
              <mxPoint x="900" y="560" />
            </Array>
          </mxGeometry>
        </mxCell>
        <mxCell id="0vRiRqgq7QBy-XEFv2EO-71" value="&lt;div&gt;Исполнение&lt;/div&gt;&lt;div&gt;команды&lt;/div&gt;" style="shape=hexagon;perimeter=hexagonPerimeter2;whiteSpace=wrap;html=1;fixedSize=1;" vertex="1" parent="WIyWlLk6GJQsqaUBKTNV-1">
          <mxGeometry x="670" y="540" width="140" height="40" as="geometry" />
        </mxCell>
        <mxCell id="0vRiRqgq7QBy-XEFv2EO-85" style="edgeStyle=orthogonalEdgeStyle;rounded=0;orthogonalLoop=1;jettySize=auto;html=1;exitX=0.5;exitY=1;exitDx=0;exitDy=0;" edge="1" parent="WIyWlLk6GJQsqaUBKTNV-1" source="0vRiRqgq7QBy-XEFv2EO-72">
          <mxGeometry relative="1" as="geometry">
            <mxPoint x="740" y="450" as="targetPoint" />
            <Array as="points">
              <mxPoint x="740" y="660" />
              <mxPoint x="650" y="660" />
              <mxPoint x="650" y="450" />
            </Array>
          </mxGeometry>
        </mxCell>
        <mxCell id="0vRiRqgq7QBy-XEFv2EO-97" style="edgeStyle=orthogonalEdgeStyle;rounded=0;orthogonalLoop=1;jettySize=auto;html=1;exitX=0;exitY=0.5;exitDx=0;exitDy=0;" edge="1" parent="WIyWlLk6GJQsqaUBKTNV-1" source="0vRiRqgq7QBy-XEFv2EO-72">
          <mxGeometry relative="1" as="geometry">
            <mxPoint x="620" y="490" as="targetPoint" />
          </mxGeometry>
        </mxCell>
        <mxCell id="0vRiRqgq7QBy-XEFv2EO-72" value="Отправление результатов команды клиенту" style="shape=hexagon;perimeter=hexagonPerimeter2;whiteSpace=wrap;html=1;fixedSize=1;" vertex="1" parent="WIyWlLk6GJQsqaUBKTNV-1">
          <mxGeometry x="670" y="610" width="140" height="40" as="geometry" />
        </mxCell>
        <mxCell id="0vRiRqgq7QBy-XEFv2EO-79" value="&lt;div&gt;успешно&lt;/div&gt;" style="text;html=1;align=center;verticalAlign=middle;resizable=0;points=[];autosize=1;strokeColor=none;fillColor=none;" vertex="1" parent="WIyWlLk6GJQsqaUBKTNV-1">
          <mxGeometry x="680" y="650" width="70" height="30" as="geometry" />
        </mxCell>
        <mxCell id="0vRiRqgq7QBy-XEFv2EO-80" value="&lt;div&gt;успешно&lt;/div&gt;" style="text;html=1;align=center;verticalAlign=middle;resizable=0;points=[];autosize=1;strokeColor=none;fillColor=none;" vertex="1" parent="WIyWlLk6GJQsqaUBKTNV-1">
          <mxGeometry x="680" y="570" width="70" height="30" as="geometry" />
        </mxCell>
        <mxCell id="0vRiRqgq7QBy-XEFv2EO-81" value="&lt;div&gt;успешно&lt;/div&gt;" style="text;html=1;align=center;verticalAlign=middle;resizable=0;points=[];autosize=1;strokeColor=none;fillColor=none;" vertex="1" parent="WIyWlLk6GJQsqaUBKTNV-1">
          <mxGeometry x="680" y="500" width="70" height="30" as="geometry" />
        </mxCell>
        <mxCell id="0vRiRqgq7QBy-XEFv2EO-82" value="&lt;div&gt;успешно&lt;/div&gt;" style="text;html=1;align=center;verticalAlign=middle;resizable=0;points=[];autosize=1;strokeColor=none;fillColor=none;" vertex="1" parent="WIyWlLk6GJQsqaUBKTNV-1">
          <mxGeometry x="730" y="430" width="70" height="30" as="geometry" />
        </mxCell>
        <mxCell id="0vRiRqgq7QBy-XEFv2EO-83" value="&lt;div&gt;успешно&lt;/div&gt;" style="text;html=1;align=center;verticalAlign=middle;resizable=0;points=[];autosize=1;strokeColor=none;fillColor=none;" vertex="1" parent="WIyWlLk6GJQsqaUBKTNV-1">
          <mxGeometry x="680" y="360" width="70" height="30" as="geometry" />
        </mxCell>
        <mxCell id="0vRiRqgq7QBy-XEFv2EO-87" value="сервер" style="text;html=1;align=center;verticalAlign=middle;resizable=0;points=[];autosize=1;strokeColor=none;fillColor=none;" vertex="1" parent="WIyWlLk6GJQsqaUBKTNV-1">
          <mxGeometry x="670" y="188" width="60" height="30" as="geometry" />
        </mxCell>
        <mxCell id="0vRiRqgq7QBy-XEFv2EO-90" value="&lt;div&gt;ошибка&lt;/div&gt;" style="text;html=1;align=center;verticalAlign=middle;resizable=0;points=[];autosize=1;strokeColor=none;fillColor=none;" vertex="1" parent="WIyWlLk6GJQsqaUBKTNV-1">
          <mxGeometry x="610" y="410" width="70" height="30" as="geometry" />
        </mxCell>
        <mxCell id="0vRiRqgq7QBy-XEFv2EO-96" value="&lt;div&gt;ошибка&lt;/div&gt;" style="text;html=1;align=center;verticalAlign=middle;resizable=0;points=[];autosize=1;strokeColor=none;fillColor=none;" vertex="1" parent="WIyWlLk6GJQsqaUBKTNV-1">
          <mxGeometry x="610" y="480" width="70" height="30" as="geometry" />
        </mxCell>
        <mxCell id="0vRiRqgq7QBy-XEFv2EO-98" value="&lt;div&gt;ошибка&lt;/div&gt;" style="text;html=1;align=center;verticalAlign=middle;resizable=0;points=[];autosize=1;strokeColor=none;fillColor=none;" vertex="1" parent="WIyWlLk6GJQsqaUBKTNV-1">
          <mxGeometry x="610" y="620" width="70" height="30" as="geometry" />
        </mxCell>
        <mxCell id="0vRiRqgq7QBy-XEFv2EO-101" value="&lt;div&gt;ошибка&lt;/div&gt;" style="text;html=1;align=center;verticalAlign=middle;resizable=0;points=[];autosize=1;strokeColor=none;fillColor=none;" vertex="1" parent="WIyWlLk6GJQsqaUBKTNV-1">
          <mxGeometry x="797" y="538" width="70" height="30" as="geometry" />
        </mxCell>
        <mxCell id="0vRiRqgq7QBy-XEFv2EO-106" style="edgeStyle=orthogonalEdgeStyle;rounded=0;orthogonalLoop=1;jettySize=auto;html=1;exitX=0.5;exitY=1;exitDx=0;exitDy=0;" edge="1" parent="WIyWlLk6GJQsqaUBKTNV-1" source="0vRiRqgq7QBy-XEFv2EO-102">
          <mxGeometry relative="1" as="geometry">
            <mxPoint x="740" y="590" as="targetPoint" />
            <Array as="points">
              <mxPoint x="900" y="630" />
              <mxPoint x="820" y="630" />
              <mxPoint x="820" y="590" />
              <mxPoint x="760" y="590" />
            </Array>
          </mxGeometry>
        </mxCell>
        <mxCell id="0vRiRqgq7QBy-XEFv2EO-102" value="Формирование сообщения с ошибкой" style="whiteSpace=wrap;html=1;rounded=1;glass=0;strokeWidth=1;shadow=0;" vertex="1" parent="WIyWlLk6GJQsqaUBKTNV-1">
          <mxGeometry x="830" y="570" width="140" height="40" as="geometry" />
        </mxCell>
        <mxCell id="0vRiRqgq7QBy-XEFv2EO-116" style="edgeStyle=orthogonalEdgeStyle;rounded=0;orthogonalLoop=1;jettySize=auto;html=1;exitX=0.5;exitY=1;exitDx=0;exitDy=0;entryX=0.5;entryY=0;entryDx=0;entryDy=0;" edge="1" parent="WIyWlLk6GJQsqaUBKTNV-1" source="0vRiRqgq7QBy-XEFv2EO-108" target="0vRiRqgq7QBy-XEFv2EO-115">
          <mxGeometry relative="1" as="geometry" />
        </mxCell>
        <mxCell id="0vRiRqgq7QBy-XEFv2EO-108" value="Завершение работы сервера" style="whiteSpace=wrap;html=1;rounded=1;glass=0;strokeWidth=1;shadow=0;" vertex="1" parent="WIyWlLk6GJQsqaUBKTNV-1">
          <mxGeometry x="910" y="670" width="140" height="40" as="geometry" />
        </mxCell>
        <mxCell id="0vRiRqgq7QBy-XEFv2EO-109" value="&lt;div&gt;успешно&lt;/div&gt;" style="text;html=1;align=center;verticalAlign=middle;resizable=0;points=[];autosize=1;strokeColor=none;fillColor=none;" vertex="1" parent="WIyWlLk6GJQsqaUBKTNV-1">
          <mxGeometry x="680" y="290" width="70" height="30" as="geometry" />
        </mxCell>
        <mxCell id="0vRiRqgq7QBy-XEFv2EO-110" value="&lt;div&gt;ошибка&lt;/div&gt;" style="text;html=1;align=center;verticalAlign=middle;resizable=0;points=[];autosize=1;strokeColor=none;fillColor=none;" vertex="1" parent="WIyWlLk6GJQsqaUBKTNV-1">
          <mxGeometry x="800" y="250" width="70" height="30" as="geometry" />
        </mxCell>
        <mxCell id="0vRiRqgq7QBy-XEFv2EO-111" value="(или когда было написано &quot;exit&quot;)" style="text;html=1;align=center;verticalAlign=middle;resizable=0;points=[];autosize=1;strokeColor=none;fillColor=none;" vertex="1" parent="WIyWlLk6GJQsqaUBKTNV-1">
          <mxGeometry x="790" y="280" width="200" height="30" as="geometry" />
        </mxCell>
        <mxCell id="0vRiRqgq7QBy-XEFv2EO-112" value="" style="ellipse;html=1;shape=endState;fillColor=strokeColor;" vertex="1" parent="WIyWlLk6GJQsqaUBKTNV-1">
          <mxGeometry x="225" y="730" width="30" height="30" as="geometry" />
        </mxCell>
        <mxCell id="0vRiRqgq7QBy-XEFv2EO-114" value="" style="ellipse;fillColor=strokeColor;html=1;" vertex="1" parent="WIyWlLk6GJQsqaUBKTNV-1">
          <mxGeometry x="595" y="70" width="30" height="30" as="geometry" />
        </mxCell>
        <mxCell id="0vRiRqgq7QBy-XEFv2EO-115" value="" style="ellipse;html=1;shape=endState;fillColor=strokeColor;" vertex="1" parent="WIyWlLk6GJQsqaUBKTNV-1">
          <mxGeometry x="965" y="730" width="30" height="30" as="geometry" />
        </mxCell>
      </root>
    </mxGraphModel>
  </diagram>
</mxfile>
